<svg width="36" height="36" viewBox="0 0 36 36" fill="none" xmlns="http://www.w3.org/2000/svg">
<path d="M17.3306 18.0014H18.6694C19.2473 18.0014 19.7311 17.5634 19.7887 16.9882L20.6887 7.9882C20.7548 7.32586 20.2352 6.75141 19.5694 6.75141H16.4306C15.7648 6.75141 15.2451 7.32586 15.3112 7.9882L16.2112 16.9882C16.2689 17.5634 16.7526 18.0014 17.3306 18.0014ZM35.448 15.1671C35.0248 13.1597 34.0776 11.3147 33.0412 9.54352C32.0323 7.81945 31.5 5.96883 31.5 4.18148V1.125C31.5 0.503438 30.9966 0 30.375 0H29.25C28.6284 0 28.125 0.503438 28.125 1.125V4.18148C28.125 10.4421 32.0386 12.0902 32.568 18.6799C32.9006 22.8241 31.7911 26.0782 28.826 29.4567C28.3029 30.0523 27.5266 30.375 26.7342 30.375H9.26577C8.47195 30.375 7.69499 30.0523 7.17187 29.4553C4.20749 26.0761 3.09866 22.8213 3.43194 18.6771C3.95226 12.2189 7.87499 10.343 7.87499 4.18148V1.125C7.87499 0.503438 7.37155 0 6.74999 0H5.62499C5.00343 0 4.49999 0.503438 4.49999 1.125V4.18148C4.49999 5.96883 3.96843 7.81875 2.95944 9.54141C1.92304 11.3105 0.976632 13.1541 0.553351 15.1608C-0.832509 21.7245 0.339601 26.768 4.61109 31.6519C4.91484 31.9985 5.25726 32.3023 5.6257 32.5688V34.875C5.6257 35.4966 6.12913 36 6.7507 36H9.0007C9.62226 36 10.1257 35.4966 10.1257 34.875V33.75H12.3757V34.875C12.3757 35.4966 12.8791 36 13.5007 36H15.7507C16.3723 36 16.8757 35.4966 16.8757 34.875V33.75H19.1257V34.875C19.1257 35.4966 19.6291 36 20.2507 36H22.5007C23.1223 36 23.6257 35.4966 23.6257 34.875V33.75H25.8757V34.875C25.8757 35.4966 26.3791 36 27.0007 36H29.2507C29.8723 36 30.3757 35.4966 30.3757 34.875V32.5688C30.7427 32.303 31.0844 31.9999 31.3875 31.654C35.659 26.7715 36.8325 21.7287 35.448 15.1671ZM18 20.2514C16.7576 20.2514 15.75 21.259 15.75 22.5014C15.75 23.7438 16.7576 24.7514 18 24.7514C19.2424 24.7514 20.25 23.7438 20.25 22.5014C20.25 21.2583 19.2424 20.2514 18 20.2514Z" fill="white" fill-opacity="0.66"/>
</svg>
