<svg width="36" height="32" viewBox="0 0 36 32" fill="none" xmlns="http://www.w3.org/2000/svg">
<path d="M0.5625 13.75H24.75C28.9547 13.75 32.2594 9.91093 31.3453 5.54452C30.8109 2.99218 28.7508 0.932022 26.1984 0.397647C22.043 -0.467197 18.3586 2.49296 18.0211 6.40233C17.993 6.72577 18.2672 6.99296 18.5836 6.99296H19.7227C20.018 6.99296 20.243 6.76093 20.2781 6.47265C20.5805 3.89921 23.0555 1.98671 25.8117 2.61952C27.4359 2.99218 28.7508 4.31405 29.1305 5.93827C29.8055 8.87733 27.5766 11.5 24.75 11.5H0.5625C0.253125 11.5 0 11.7531 0 12.0625V13.1875C0 13.4969 0.253125 13.75 0.5625 13.75ZM10.9688 16H0.5625C0.253125 16 0 16.2531 0 16.5625V17.6875C0 17.9969 0.253125 18.25 0.5625 18.25H11.0461C13.3945 18.25 15.4969 19.9656 15.7219 22.3C15.982 24.9789 13.8727 27.25 11.243 27.25C8.93672 27.25 7.03125 25.5062 6.77109 23.2773C6.73594 22.982 6.51094 22.757 6.21563 22.757H5.09063C4.76719 22.757 4.5 23.0312 4.52813 23.3476C4.83047 26.8 7.72734 29.507 11.25 29.507C15.0469 29.507 18.1125 26.3711 18 22.5531C17.8875 18.8476 14.6602 16 10.9688 16ZM27.7945 16H17.1422C17.8805 16.6469 18.5063 17.3992 18.9984 18.25H27.8719C30.8109 18.25 33.4336 20.3875 33.7219 23.3125C34.0523 26.6664 31.4086 29.5 28.125 29.5C25.5586 29.5 23.393 27.7773 22.718 25.4219C22.6477 25.1758 22.4367 25 22.1766 25H21.0445C20.693 25 20.4117 25.3234 20.4891 25.668C21.2977 29.1484 24.3984 31.75 28.125 31.75C32.5547 31.75 36.1336 28.0937 36 23.6359C35.8664 19.3258 32.1047 16 27.7945 16Z" fill="#FBFBFB" fill-opacity="0.66"/>
</svg>
